<svg width="38" height="53" viewBox="0 0 38 53" fill="currentColor" xmlns="http://www.w3.org/2000/svg">
<path d="M29.5218 15.5359C32.2869 9.30657 33.1212 7.51138 36.2871 0.283447H31.8553L25.8339 13.8315C27.1232 14.2851 28.3571 14.8573 29.5218 15.5359Z" fill="currentColor"/>
<path d="M18.6924 12.6159C20.1051 12.6159 21.4861 12.7531 22.8235 13.0136L28.4815 0.283447H23.9549C22.3714 3.86889 20.3147 8.52511 18.6853 12.2144L13.4038 0.283447H8.90332L14.5611 13.0136C15.8987 12.7531 17.2797 12.6159 18.6924 12.6159Z" fill="currentColor"/>
<path d="M11.5511 13.8315L5.52972 0.283447H1.06055L7.85602 15.5402C9.02288 14.8598 10.2592 14.2861 11.5511 13.8315Z" fill="currentColor"/>
<path d="M18.6925 15.699C8.49234 15.699 0.193848 23.9975 0.193848 34.1976C0.193848 44.3978 8.49234 52.6963 18.6925 52.6963C28.8926 52.6963 37.1911 44.3978 37.1911 34.1976C37.1911 23.9975 28.8926 15.699 18.6925 15.699ZM12.7625 42.661L13.8951 36.0581L9.09765 31.3817L15.7276 30.4183L18.6925 24.4107L21.6575 30.4183L28.2873 31.3817L23.4899 36.0581L24.6224 42.661L18.6925 39.5435L12.7625 42.661ZM18.6925 36.0603L20.5277 37.0251L20.1772 34.9815L21.6618 33.5344L19.6101 33.2363L18.6925 31.3771L17.775 33.2363L15.7232 33.5344L17.2079 34.9815L16.8573 37.0251L18.6925 36.0603Z" fill="currentColor"/>
</svg>
